# xmcd CD database file
#
# Track frame offsets:
#	150
#	16646
#	32146
#	50130
#	66878
#	78176
#	90230
#	105666
#
# Disc length: 1655 seconds
#
# Revision: 3
# Processed by: cddbd v1.5.2PL0 Copyright (c) Steve Scherf et al.
# Submitted via: CDex 1.70beta2
#
DISCID=55067508
DTITLE=Mustang!! - HOT SHOE S★RIDE
DYEAR=2004
DGENRE=Rock
TTITLE0=Roll on
TTITLE1=青春のうた
TTITLE2=Ride out a Dirt
TTITLE3=昼下がり
TTITLE4=Lunch Time
TTITLE5=Melancholy
TTITLE6=My Trail Way Is Sunny
TTITLE7=夏待ち
EXTD=YEAR: 2004
EXTT0=
EXTT1=
EXTT2=
EXTT3=
EXTT4=
EXTT5=
EXTT6=
EXTT7=
PLAYORDER=
